<svg width="16" height="16" viewBox="0 0 16 16" fill="none" xmlns="http://www.w3.org/2000/svg">
<g clip-path="url(#clip0_1503_25)">
<mask id="mask0_1503_25" style="mask-type:luminance" maskUnits="userSpaceOnUse" x="0" y="0" width="16" height="16">
<path d="M16 0H0V16H16V0Z" fill="white"/>
</mask>
<g mask="url(#mask0_1503_25)">
<path fill-rule="evenodd" clip-rule="evenodd" d="M7.9979 15.0349C12.649 15.0349 15.9997 12.0058 15.9997 11.2401V9.36753C15.9304 8.74371 15.3332 7.65848 14.4085 7.27319C14.3953 7.20305 14.384 7.13054 14.3722 7.05497C14.3436 6.87219 14.3121 6.67138 14.2456 6.44254C14.4468 5.93459 14.4998 5.3595 14.4998 4.78747C14.4998 3.91675 14.3723 3.01816 13.807 2.30264C13.228 1.56982 12.3128 1.17875 11.0826 1.04205C9.87675 0.908079 8.82089 1.07631 8.13894 1.80698C8.08945 1.86 8.03943 1.9152 7.99607 1.9716C7.9527 1.9152 7.90634 1.86 7.85686 1.80698C7.1749 1.07631 6.11904 0.908079 4.91324 1.04205C3.68301 1.17875 2.76779 1.56982 2.18882 2.30264C1.62352 3.01816 1.49607 3.91675 1.49607 4.78747C1.49607 5.3595 1.54902 5.93459 1.7502 6.44254C1.68369 6.67138 1.65228 6.87212 1.62368 7.05491C1.61186 7.1305 1.60051 7.20302 1.58736 7.27319C0.662661 7.65848 0.0654626 8.74371 -0.00390625 9.36753V11.2401C-0.00390625 12.0058 3.34684 15.0349 7.9979 15.0349ZM10.917 2.53288C9.87273 2.41686 9.42859 2.62362 9.23554 2.83046C9.0317 3.04886 8.87701 3.50883 8.99396 4.44444C9.08468 5.17023 9.29626 5.67458 9.61164 5.99654C9.91072 6.30186 10.3961 6.53747 11.2498 6.53747C12.1721 6.53747 12.5293 6.33869 12.6916 6.15788C12.8707 5.95823 12.9998 5.57978 12.9998 4.78747C12.9998 4.02182 12.8772 3.54541 12.63 3.23253C12.3965 2.93694 11.9367 2.64619 10.917 2.53288ZM6.7616 2.83046C6.56855 2.62362 6.12441 2.41686 5.08021 2.53288C4.06044 2.64619 3.60066 2.93694 3.36713 3.23253C3.11994 3.54541 2.99739 4.02182 2.99739 4.78747C2.99739 5.57978 3.12644 5.95823 3.30559 6.15788C3.46784 6.33869 3.82507 6.53747 4.74739 6.53747C5.60106 6.53747 6.08642 6.30186 6.3855 5.99654C6.70088 5.67458 6.91246 5.17023 7.00318 4.44444C7.12013 3.50883 6.96544 3.04886 6.7616 2.83046ZM7.99792 13.5503C10.2778 13.5503 12.5815 12.4403 12.9998 12.1171V7.86173L12.9767 7.74622C12.4865 7.95586 11.902 8.03747 11.2498 8.03747C10.1035 8.03747 9.19027 7.70994 8.54009 7.04619C8.32106 6.82259 8.14327 6.5723 7.99975 6.30341C7.85623 6.5723 7.67479 6.82259 7.45576 7.04619C6.80558 7.70994 5.89242 8.03747 4.74609 8.03747C4.09386 8.03747 3.50935 7.95586 3.0192 7.74622L2.9961 7.86173V12.1171C3.41435 12.4403 5.71805 13.5503 7.99792 13.5503Z" fill="#11181C"/>
<path d="M6.25 9.03748C6.66421 9.03748 7 9.37326 7 9.78748V11.2875C7 11.7017 6.66421 12.0375 6.25 12.0375C5.83579 12.0375 5.5 11.7017 5.5 11.2875V9.78748C5.5 9.37326 5.83579 9.03748 6.25 9.03748Z" fill="#11181C"/>
<path d="M10.5 9.78748C10.5 9.37326 10.1642 9.03748 9.75 9.03748C9.33579 9.03748 9 9.37326 9 9.78748V11.2875C9 11.7017 9.33579 12.0375 9.75 12.0375C10.1642 12.0375 10.5 11.7017 10.5 11.2875V9.78748Z" fill="#11181C"/>
</g>
</g>
<defs>
<clipPath id="clip0_1503_25">
<rect width="16" height="16" fill="white"/>
</clipPath>
</defs>
</svg>
