<svg width="16" height="16" viewBox="0 0 16 16" fill="none" xmlns="http://www.w3.org/2000/svg">
<g clip-path="url(#clip0_1503_33)">
<mask id="mask0_1503_33" style="mask-type:luminance" maskUnits="userSpaceOnUse" x="0" y="0" width="16" height="16">
<path d="M16 0H0V16H16V0Z" fill="white"/>
</mask>
<g mask="url(#mask0_1503_33)">
<path d="M7.99988 8L10.9999 5M7.99988 8L4.99988 11M7.99988 8L4.99988 5M7.99988 8L10.9999 11M0.782715 5.1141V10.8859C0.782715 10.9522 0.809054 11.0158 0.855938 11.0627L4.93721 15.1439C4.98409 15.1908 5.04768 15.2171 5.11398 15.2171H10.8858C10.9521 15.2171 11.0157 15.1908 11.0626 15.1439L15.1438 11.0627C15.1907 11.0158 15.217 10.9522 15.217 10.8859V5.1141C15.217 5.0478 15.1907 4.98421 15.1438 4.93733L11.0626 0.85606C11.0157 0.809176 10.9521 0.782837 10.8858 0.782837H5.11398C5.04768 0.782837 4.98409 0.809176 4.93721 0.85606L0.855938 4.93733C0.809054 4.98421 0.782715 5.0478 0.782715 5.1141Z" stroke="#11181C" stroke-width="1.5"/>
</g>
</g>
<defs>
<clipPath id="clip0_1503_33">
<rect width="16" height="16" fill="white"/>
</clipPath>
</defs>
</svg>
