<svg width="16" height="16" viewBox="0 0 16 16" fill="none" xmlns="http://www.w3.org/2000/svg">
<path d="M6.5 11.75H2C1.86193 11.75 1.75 11.6381 1.75 11.5V4.75M1.75 4.75V1.75M1.75 4.75H6.5M11.5 3.52222H14.125C14.194 3.52222 14.25 3.57819 14.25 3.64722V6.875C14.25 6.94404 14.194 7 14.125 7H8.875C8.80596 7 8.75 6.94404 8.75 6.875V3.52222M11.5 3.52222L10.5368 2.53759C10.5133 2.51355 10.481 2.5 10.4474 2.5H8.875C8.80596 2.5 8.75 2.55596 8.75 2.625V3.52222M11.5 3.52222H8.75M11.5 10.7722H14.125C14.194 10.7722 14.25 10.8282 14.25 10.8972V14.125C14.25 14.194 14.194 14.25 14.125 14.25H8.875C8.80596 14.25 8.75 14.194 8.75 14.125V10.7722M11.5 10.7722L10.5368 9.78759C10.5133 9.76355 10.481 9.75 10.4474 9.75H8.875C8.80596 9.75 8.75 9.80596 8.75 9.875V10.7722M11.5 10.7722H8.75" stroke="#11181C" stroke-linejoin="round"/>
</svg>
